<svg id="Layer_1" data-name="Layer 1" xmlns="http://www.w3.org/2000/svg" viewBox="0 0 580 551.02"><defs><style>.cls-1{fill:#1b1f24;}.cls-2{fill:#22c8a4;}.cls-3{fill:#fefefe;}</style></defs><rect class="cls-1" x="15.12" y="130.59" width="551.34" height="405.07"/><rect class="cls-2" x="222.72" y="284.89" width="137.39" height="55.31"/><rect class="cls-2" x="355.67" y="90.9" width="80.93" height="29.69"/><rect class="cls-2" x="145.83" y="90.9" width="82.36" height="29.69"/><polygon class="cls-1" points="403.83 33.97 403.83 15.17 177.88 15.17 177.88 33.97 171.45 33.97 171.45 79.15 203.98 79.15 203.98 39.25 378.04 39.25 378.04 81.55 410.17 81.55 410.17 33.97 403.83 33.97"/><path class="cls-3" d="M589.6,179.19c0-22.3-15.54-37.26-38.49-37.44-26.88-.21-53.77-.05-80.66-.05-14.64,0-14.66,0-14.86-14.56-.1-6.82-1.11-13.24-6.85-17.89-3.56-2.88-7.67-3.78-12.16-4-6.33-.31-8-2-8.17-8.39-.26-9.27,0-18.56-.1-27.83-.18-23.92-20.26-44.23-44.29-44.3q-83.22-.22-166.44,0c-24.57.06-44.67,20.45-44.78,45,0,9.08.17,18.18-.09,27.26-.18,6.16-1.73,7.67-7.69,8.34-11,1.25-16.58,6.74-18,17.65a71.14,71.14,0,0,0-.32,8.51c-.1,9.22-1,10.18-10,10.24-8.53.06-17.05,0-25.57,0H51.44c-18.1,0-31.33,7.48-38.22,24.8-.68,1.69-1,3.9-3.52,4.11V535.33h0c3,.3,3.14,2.93,3.87,4.94,8.5,23.48,25.14,35.33,49.9,35.33H414.54c1.41,0,2.82,0,4.23,0h50.57c23.33,0,46.66.06,70,0,28.5-.08,50.2-21.3,50.24-49.87Q589.84,352.45,589.6,179.19Zm-155-58.86c4.13,0,5.61,1.08,5.62,5.4,0,14.41.2,14.41-14.2,14.41H404.49c-10.21,0-20.41-.09-30.61.06-2.88,0-3.81-.74-3.91-3.78-.54-16-.64-16,15.32-16C401.73,120.41,418.16,120.53,434.6,120.33Zm-82.42,18.91c-2.85,2.93-8.95.84-13.61.86-28,.09-56,0-84,.13-4,0-5.9-.6-5.33-5.13.44-3.53.11-7.17.08-10.76-.1-13.07-7.71-21-20.72-20.84-4.76.06-6.21-1.26-5.88-6a125.25,125.25,0,0,0,0-17c-.27-4.3.85-5.69,5.45-5.64,24.2.26,48.41.12,72.62.12s48.41.1,72.62-.1c4,0,5.12,1.08,4.91,5-.34,6.42-.23,12.86,0,19.29.1,3.14-.78,4.14-4.1,4.24-14.29.39-21.11,7.73-21.25,22.11C352.93,130.26,355,136.33,352.18,139.24Zm-164.32-71c1-15.69,13.69-28.21,29.35-28.27q83.22-.3,166.42,0a29.74,29.74,0,0,1,29.62,28.57c.53,10.39.14,20.82.28,31.24,0,2.54-.61,3.56-3.45,3.72-14.77.86-14.77,1-14.77-14,0-5.87.12-11.74,0-17.61C395.05,62.6,390.4,58,381.06,58c-26.88-.06-53.77,0-80.65,0q-39.2,0-78.38,0c-12.21,0-16.19,4-16.22,16.44,0,8.33-.08,16.66,0,25,0,2.78-.58,3.92-3.73,4-14.5.56-14.51.68-14.48-13.68C187.65,82.58,187.41,75.37,187.86,68.2Zm-10.52,52.21c16.43,0,32.87.15,49.3-.09,4.49-.07,5.83,1.27,5.78,5.79-.14,14,0,14-13.95,14h-21c-10.38,0-20.78-.12-31.16.07-3.27.06-4.06-1-4.12-4.17C161.91,120.41,161.81,120.41,177.34,120.41ZM576.11,524c0,16-6.77,28-21.54,35.09-5.09,2.42-10.48,3.06-16,3.05q-34.11,0-68.21,0v0H417.4c-1.09,0-2.18,0-3.27,0q-88.62,0-177.23,0c-57.38,0-114.76-.47-172.12.23-22.65.27-40.18-15.61-40-40.13.51-57.75.15-115.51.17-173.27,0-5.92.19-9,1.75-9.93V338c.3.24.6.44.89.67,1.65-.22,4.3.83,8.6,2.83,8.09,3.75,16.47,3.75,24.89,3.35V345h51.31c1,0,2,0,3,0H210c2.27,0,4.54,0,6.81.13,3.57.21,5.75,2,5.84,5.61.43,15.59,12.53,26.32,31,26.15,31.43-.29,62.86-.07,94.3-.09,7.54,0,14.76-1.26,20.82-6.15,5.73-4.62,8.73-10.75,9.56-18.08.74-6.45,1.78-7.38,8.23-7.51,9.09-.19,18.18-.06,27.27-.06,43.36,0,86.72-.1,130.08.08,8.71,0,16.89-1.15,24.73-5.09,5.46-2.74,7-1.59,7.46,4.5.08,1.13.07,2.27.07,3.4Q576.14,435.9,576.11,524ZM237.94,327.39c.11-7.64,3.88-11.34,11.64-11.37,17,0,34,0,51,0,16.82,0,33.65,0,50.47,0,8.43,0,12,3.63,12.09,12.09q.09,10.5,0,21c-.08,8.31-3.75,12-12.23,12.09-16.82.1-33.65,0-50.47,0-16.45,0-32.9,0-49.35,0-9.83,0-13.19-3.47-13.22-13.39C237.9,341,237.84,334.2,237.94,327.39ZM576,303.65c-.12,16.12-12.22,27.72-28.38,27.75q-79.81.15-159.63,0c-8.26,0-8.65-.46-9.89-8.82-1.87-12.56-11.44-21.15-24.65-21.7-9.83-.41-19.69-.11-29.53-.12-24.24,0-48.48.29-72.71-.1-17.25-.28-27.88,10.87-28.54,24.56-.2,4.21-2.61,6-6.64,6.12-6.06.17-12.12.08-18.18.08q-38.28,0-76.57,0v-.17H61.12c-1.54,0-3.08.1-4.59.22-21.13,1.75-32-15.57-31.74-31.62.59-39.18.17-78.39.2-117.58,0-18.44,8.61-27.06,27.22-27.07q167.58-.06,335.15,0h158.5c2.65,0,5.3-.07,7.95.13,13.41,1.05,22.18,9.9,22.24,23.32C576.25,220.33,576.32,262,576,303.65Z" transform="translate(-9.7 -24.61)"/></svg>