<svg id="Layer_1" data-name="Layer 1" xmlns="http://www.w3.org/2000/svg" viewBox="0 0 200 200"><defs><style>.cls-1{fill:#22c8a4;}</style></defs><path class="cls-1" d="M152.21578,156.533H33.02942a7.33837,7.33837,0,0,1-5.93775-4.36859H13.5087V156.533h-.00935v4.69935c0,.13035.0034.2599.00935.38878v.76245h.07065a8.28662,8.28662,0,0,0,8.20532,7.13409H166.24432a5.44673,5.44673,0,0,0,5.44674-5.44673v-7.05722h.0236V150.8493H158.58225A7.3377,7.3377,0,0,1,152.21578,156.533Z"/><path class="cls-1" d="M178.74657,71.04111H47.90175c-7.38288,0-13.499,3.88741-14.58225,8.96243L26.48393,98.67011V49.38152a7.33429,7.33429,0,0,1,6.83568-6.43621H53.07246l16.15289,10.452.00516-.01449A8.06314,8.06314,0,0,0,74.47184,55.309H152.271a7.33467,7.33467,0,0,1,6.459,6.62786V67.2329h12.98467V47.75453a5.42574,5.42574,0,0,0-5.42574-5.42573h-1.51824v-.00449H73.16406L58.567,32.23036a8.283,8.283,0,0,0-5.70743-2.26972H24.73222v.04994H21.7144a8.21513,8.21513,0,0,0-8.21513,8.21513v95.33592h.00943v1.556q-.01831.36982,0,.73647v3.12227a7.48939,7.48939,0,0,0,7.48939,7.48939H26.9514c1.80822,0,1.78375.02739,2.96076.02739H158.57829a18.398,18.398,0,0,0,9.6998-2.60749,10.918,10.918,0,0,0,4.91816-5.49428l19.80294-54.07787a7.79534,7.79534,0,0,0,.48623-2.69749h.01385C193.49927,75.77564,186.89426,71.04111,178.74657,71.04111ZM92.65,89.26028,116.97875,81.616h61.75573l-19.88509,54.30225H28.09644L47.98152,81.616H82.07466"/></svg>