<?xml version="1.0" encoding="utf-8"?>
<!-- Generator: Adobe Illustrator 24.1.1, SVG Export Plug-In . SVG Version: 6.00 Build 0)  -->
<svg version="1.1" id="Capa_1" xmlns="http://www.w3.org/2000/svg" xmlns:xlink="http://www.w3.org/1999/xlink" x="0px" y="0px"
	 viewBox="0 0 40 40" style="enable-background:new 0 0 40 40;" xml:space="preserve">
<style type="text/css">
	.st0{fill:#FFFFFF;}
	.st1{fill:#1F2934;}
</style>
<path class="st0" d="M30.5,19.2c-0.6-0.5-1.3-0.8-2.1-0.7c-0.5,0-1.1,0.1-1.6,0.3c-0.4,0.2-0.7,0.4-0.9,0.7
	c-0.3,0.2-0.4,0.6-0.5,0.9c-0.1,0.3-0.1,0.6-0.1,0.9h6C31.3,20.5,31,19.8,30.5,19.2L30.5,19.2z"/>
<path class="st0" d="M14.7,17.6c0.5-0.4,0.7-1,0.7-1.7c0-0.4-0.1-0.7-0.2-1.1c-0.1-0.3-0.4-0.5-0.6-0.7c-0.3-0.2-0.6-0.3-0.9-0.3
	c-0.4,0-0.7,0-1.1,0H8.7v4.4h4.2C13.5,18.2,14.1,18.1,14.7,17.6"/>
<path class="st0" d="M37.1,0H2.9C1.3,0,0,1.3,0,2.9c0,0,0,0,0,0v34.3C0,38.7,1.3,40,2.9,40l0,0h34.3c1.6,0,2.9-1.3,2.9-2.9l0,0V2.9
	C40,1.3,38.7,0,37.1,0C37.1,0,37.1,0,37.1,0 M23.8,11.9h7.6v1.9h-7.6V11.9z M20.3,26c-0.4,0.7-0.9,1.3-1.6,1.7
	c-0.7,0.4-1.4,0.8-2.2,1c-0.8,0.2-1.6,0.3-2.4,0.3H4.9V10h9c0.8,0,1.7,0.1,2.5,0.3c0.7,0.1,1.3,0.4,1.9,0.8c0.6,0.3,1,0.8,1.3,1.4
	c0.3,0.7,0.4,1.4,0.4,2.2c0,0.9-0.2,1.7-0.7,2.4c-0.5,0.7-1.2,1.2-1.9,1.6c1.1,0.3,2,0.9,2.6,1.8c0.6,0.9,0.9,2,0.9,3
	C20.9,24.3,20.7,25.1,20.3,26 M35.1,23.3h-9.8c-0.1,1.1,0.2,2.2,0.9,3.1c0.7,0.6,1.5,0.9,2.4,0.8c0.7,0,1.4-0.2,2-0.5
	c0.5-0.4,0.9-0.9,1-1.6h3.3c-0.3,1.5-1.2,2.9-2.4,3.8c-1.2,0.7-2.5,1.1-3.9,1.1c-1,0-2-0.2-2.9-0.5c-0.8-0.3-1.6-0.8-2.1-1.5
	c-0.6-0.6-1.1-1.4-1.3-2.2c-0.3-0.9-0.5-1.9-0.5-2.9c0-1,0.1-1.9,0.5-2.8c0.3-0.8,0.8-1.6,1.4-2.3c0.6-0.6,1.3-1.1,2.2-1.5
	c0.9-0.4,1.8-0.5,2.8-0.5c1.1,0,2.1,0.2,3,0.7c0.8,0.4,1.6,1,2.1,1.8c0.6,0.8,1,1.6,1.2,2.5C35.1,21.5,35.1,22.4,35.1,23.3"/>
<path class="st0" d="M12.5,21.4H8.7V27h3.8c0.4,0,0.9-0.1,1.3-0.2c0.4-0.1,0.7-0.2,1-0.4c0.3-0.2,0.6-0.5,0.7-0.8
	c0.2-0.4,0.3-0.9,0.3-1.3c0.1-0.9-0.3-1.7-0.9-2.3C14.2,21.5,13.4,21.3,12.5,21.4"/>
<rect x="23.8" y="11.9" class="st1" width="7.6" height="1.9"/>
<path class="st1" d="M17.3,18.6c0.8-0.3,1.4-0.9,1.9-1.6c0.5-0.7,0.7-1.5,0.7-2.4c0-0.7-0.1-1.5-0.4-2.2c-0.3-0.6-0.7-1.1-1.3-1.4
	c-0.6-0.4-1.2-0.6-1.9-0.8c-0.8-0.2-1.6-0.3-2.5-0.3h-9v18.9h9.2c0.8,0,1.7-0.1,2.5-0.3c0.8-0.2,1.5-0.5,2.2-1
	c0.7-0.4,1.2-1,1.6-1.7c0.4-0.8,0.5-1.6,0.5-2.5c0-1.1-0.3-2.1-0.9-3C19.3,19.5,18.4,18.9,17.3,18.6 M8.7,13.8h3.9
	c0.4,0,0.7,0,1.1,0c0.3,0.1,0.6,0.2,0.9,0.3c0.3,0.2,0.5,0.4,0.6,0.7c0.1,0.3,0.2,0.7,0.2,1.1c0.1,0.6-0.2,1.3-0.7,1.7
	c-0.5,0.4-1.2,0.6-1.8,0.5H8.7V13.8z M15.5,25.6c-0.2,0.3-0.5,0.6-0.7,0.8c-0.3,0.2-0.6,0.4-1,0.4C13.3,27,12.9,27,12.5,27H8.7v-5.7
	h3.8c0.8,0,1.7,0.2,2.4,0.7c0.6,0.6,0.9,1.4,0.9,2.3C15.7,24.8,15.6,25.2,15.5,25.6"/>
<path class="st1" d="M33.7,18.2c-0.5-0.8-1.2-1.4-2.1-1.8c-0.9-0.5-2-0.7-3-0.7c-1,0-1.9,0.2-2.8,0.5c-0.8,0.4-1.5,0.9-2.2,1.5
	c-0.6,0.7-1.1,1.4-1.4,2.3c-0.3,0.9-0.5,1.9-0.5,2.8c0,1,0.1,2,0.5,2.9c0.3,0.8,0.7,1.6,1.4,2.2c0.6,0.7,1.3,1.2,2.1,1.5
	c0.9,0.4,1.9,0.5,2.9,0.5c1.4,0,2.7-0.3,3.9-1.1c1.2-0.9,2.1-2.3,2.4-3.8h-3.3c-0.1,0.6-0.5,1.2-1,1.6c-0.6,0.4-1.3,0.6-2,0.5
	c-0.9,0.1-1.8-0.2-2.4-0.8c-0.7-0.9-1-2-0.9-3.1h9.7c0.1-0.8,0-1.7-0.1-2.5C34.7,19.9,34.3,19.1,33.7,18.2 M25.4,21.4
	c0-0.3,0.1-0.6,0.1-0.9c0.1-0.4,0.2-0.7,0.5-0.9c0.3-0.3,0.6-0.6,0.9-0.7c0.5-0.2,1-0.3,1.6-0.3c0.8,0,1.5,0.2,2.1,0.7l0,0
	c0.5,0.6,0.9,1.4,0.9,2.2H25.4z"/>
</svg>
