<?xml version="1.0" encoding="utf-8"?>
<!-- Generator: Adobe Illustrator 24.1.1, SVG Export Plug-In . SVG Version: 6.00 Build 0)  -->
<svg version="1.1" id="Capa_1" xmlns="http://www.w3.org/2000/svg" xmlns:xlink="http://www.w3.org/1999/xlink" x="0px" y="0px"
	 viewBox="0 0 25.6 25.6" style="enable-background:new 0 0 25.6 25.6;" xml:space="preserve">
<style type="text/css">
	.st0{fill:#FFFFFF;}
	.st1{fill:#1F2934;}
</style>
<path class="st0" d="M0,1.7v22.1c0,1,0.8,1.7,1.7,1.7h22.1c1,0,1.7-0.8,1.7-1.7V1.7c0-1-0.8-1.7-1.7-1.7H1.7C0.8,0,0,0.8,0,1.7
	 M20.7,11.7c-0.2,1.6-1.3,3-2.8,3.6c-0.6,0.3-1.2,0.5-1.9,0.6c-0.3,0-0.3,0.1-0.2,0.4c0.3,0.5,0.4,1.1,0.4,1.6c0,1.3,0,2.7,0,4
	c0,0.4,0,0.5-0.4,0.5h-4.2c-0.5,0-0.5,0-0.5-0.5s0-1.1,0-1.6s0-0.4-0.4-0.4C9.9,20,9.1,20,8.4,19.7c-0.7-0.3-1.3-0.9-1.7-1.6
	c-0.2-0.4-0.4-0.8-0.7-1.2c-0.3-0.4-0.6-0.7-1-1c-0.1-0.1-0.2-0.1-0.2-0.3s0.2-0.1,0.3-0.1c0.8-0.1,1.6,0.3,2,1
	c0.2,0.2,0.3,0.5,0.5,0.7c0.8,0.9,2,1.3,3.2,0.9c0.2,0,0.3-0.2,0.3-0.4c0-0.5,0.2-1,0.4-1.5c0.1-0.2,0-0.2-0.2-0.3
	c-0.5-0.1-1-0.2-1.5-0.3C7.7,15,6.3,13,6.4,10.8c0-0.8,0-1.6,0.2-2.5C6.7,7.6,7,7,7.5,6.5C7.7,6.4,7.7,6.2,7.6,6
	c-0.3-0.8-0.3-1.7,0-2.5C7.9,3.2,8,3.1,8.5,3.3c0.7,0.3,1.3,0.8,1.7,1.4C10.4,5,10.5,5,10.8,4.9c0.7-0.3,1.4-0.4,2.2-0.4
	c0.9-0.1,1.8,0,2.6,0.1c0.4,0,0.8,0.2,1.1,0.3C16.9,5,17,5,17.1,4.8c0.4-0.6,1-1.1,1.7-1.5c0.6-0.3,0.7-0.2,0.9,0.4
	c0.2,0.8,0.2,1.5-0.1,2.3c-0.1,0.2-0.1,0.3,0,0.5c0.6,0.6,1,1.5,1,2.4C20.8,9.9,20.8,10.8,20.7,11.7"/>
<path class="st1" d="M19.6,6.5c-0.1-0.1-0.1-0.3,0-0.5c0.3-0.7,0.3-1.5,0.1-2.3C19.5,3,19.4,3,18.8,3.3c-0.7,0.3-1.2,0.8-1.7,1.5
	C17,5,16.9,5,16.7,4.9c-0.3-0.2-0.7-0.3-1.1-0.4c-0.9-0.1-1.7-0.2-2.6-0.1c-0.7,0-1.4,0.1-2.1,0.4C10.6,5,10.4,5,10.2,4.7
	c-0.4-0.6-1-1.1-1.8-1.4C8,3.1,7.9,3.2,7.8,3.6c-0.3,0.8-0.3,1.7,0,2.5c0.1,0.2,0,0.4-0.1,0.5C7.2,7.1,6.9,7.7,6.8,8.4
	C6.7,9.2,6.6,10,6.6,10.8C6.5,13,7.9,15,10,15.6c0.5,0.2,0.9,0.3,1.4,0.4c0.1,0,0.3,0.1,0.2,0.2c-0.3,0.4-0.4,0.9-0.4,1.5
	c0,0.2-0.1,0.3-0.3,0.4c-1.1,0.4-2.4,0-3.2-0.9c-0.2-0.2-0.3-0.5-0.5-0.7c-0.4-0.7-1.2-1-1.9-1c-0.1,0-0.3,0-0.3,0.1
	s0.1,0.2,0.2,0.3c0.4,0.3,0.7,0.6,1,1c0.3,0.4,0.5,0.8,0.7,1.3c0.3,0.7,0.9,1.3,1.7,1.6c0.7,0.3,1.5,0.4,2.3,0.2
	c0.4-0.1,0.4,0,0.4,0.4s0,1.1,0,1.6s0,0.5,0.5,0.5h4.1c0.4,0,0.4,0,0.4-0.5c0-1.3,0-2.7,0-4c0-0.6-0.1-1.1-0.4-1.6
	C15.7,16.1,15.7,16,16,16c0.7-0.1,1.3-0.3,1.9-0.6c1.5-0.6,2.6-2,2.8-3.6c0.1-1,0.1-1.9,0-2.9C20.6,8,20.3,7.2,19.6,6.5"/>
</svg>
