<svg id="Layer_1" data-name="Layer 1" xmlns="http://www.w3.org/2000/svg" viewBox="0 0 384 384"><defs><style>.cls-1{fill:#1b1f24;}.cls-2{fill:#1eb091;}.cls-3{fill:#fefefe;}</style></defs><rect class="cls-1" x="15.67" y="100.25" width="353.66" height="259.84"/><rect class="cls-2" x="148.84" y="199.22" width="88.13" height="35.48"/><rect class="cls-2" x="234.13" y="74.79" width="51.91" height="19.04"/><rect class="cls-2" x="99.52" y="74.79" width="52.83" height="19.04"/><polygon class="cls-1" points="265.02 38.27 265.02 26.21 120.08 26.21 120.08 38.27 115.95 38.27 115.95 67.25 136.82 67.25 136.82 41.66 248.47 41.66 248.47 68.79 269.08 68.79 269.08 38.27 265.02 38.27"/><path class="cls-3" d="M378,115.64c0-14.31-10-23.91-24.68-24-17.25-.13-34.5,0-51.74,0-9.4,0-9.41,0-9.54-9.34-.05-4.37-.7-8.49-4.39-11.48a12.75,12.75,0,0,0-7.8-2.57c-4.06-.2-5.13-1.31-5.24-5.38-.16-6,0-11.9-.06-17.86-.12-15.34-13-28.37-28.41-28.41q-53.39-.15-106.77,0A29.05,29.05,0,0,0,110.6,45.39c0,5.83.11,11.66-.06,17.49-.11,3.95-1.11,4.91-4.93,5.35C98.57,69,95,72.55,94,79.55A43.27,43.27,0,0,0,93.83,85c-.07,5.91-.65,6.52-6.42,6.57-5.47,0-10.93,0-16.4,0q-19.13,0-38.26,0c-11.61,0-20.1,4.8-24.52,15.9C7.8,108.58,7.59,110,6,110.13v234H6c1.92.2,2,1.88,2.48,3.17,5.45,15.07,16.13,22.66,32,22.66H265.66c.91,0,1.81,0,2.72,0h32.43c15,0,29.94,0,44.91,0,18.28-.06,32.2-13.66,32.23-32Q378.1,226.77,378,115.64ZM278.53,77.88c2.65,0,3.6.69,3.61,3.46,0,9.25.13,9.25-9.11,9.25H259.21c-6.54,0-13.08-.06-19.63,0-1.84,0-2.44-.47-2.5-2.42-.35-10.27-.41-10.27,9.82-10.27C257.44,77.93,268,78,278.53,77.88ZM225.66,90c-1.82,1.88-5.74.54-8.73.55-18,.06-35.91,0-53.86.09-2.58,0-3.79-.39-3.42-3.29a51.37,51.37,0,0,0,0-6.91c-.06-8.38-4.94-13.48-13.29-13.37-3,0-4-.8-3.77-3.81a81.06,81.06,0,0,0,0-10.91c-.18-2.76.54-3.65,3.49-3.62,15.53.17,31.05.08,46.58.08s31.06.07,46.59-.06c2.58,0,3.28.69,3.15,3.21-.22,4.12-.15,8.25,0,12.37.06,2-.5,2.66-2.63,2.72-9.17.25-13.54,5-13.63,14.19C226.15,84.25,227.47,88.14,225.66,90ZM120.26,44.44a19.13,19.13,0,0,1,18.83-18.13q53.37-.19,106.75,0a19.08,19.08,0,0,1,19,18.33c.33,6.66.09,13.35.17,20,0,1.64-.38,2.29-2.21,2.39-9.47.56-9.47.62-9.47-9,0-3.76.07-7.53,0-11.29-.15-5.94-3.13-8.87-9.12-8.89q-25.86,0-51.74,0H142.18c-7.84,0-10.39,2.6-10.41,10.54,0,5.35-.05,10.69,0,16,0,1.78-.38,2.51-2.4,2.59-9.29.36-9.3.43-9.28-8.78C120.12,53.67,120,49,120.26,44.44Zm-6.75,33.49c10.54,0,21.09.09,31.62-.06,2.88,0,3.74.82,3.71,3.72-.09,9,0,9-8.94,9H126.45c-6.67,0-13.33-.08-20,0-2.09,0-2.6-.64-2.64-2.67C103.61,77.93,103.55,77.93,113.51,77.93ZM369.3,336.79c0,10.26-4.34,18-13.82,22.51a23.39,23.39,0,0,1-10.28,2q-21.88,0-43.76,0v0H267.5l-2.1,0q-56.83,0-113.69,0c-36.8,0-73.61-.3-110.4.15-14.53.17-25.77-10-25.63-25.75.32-37,.09-74.09.1-111.14,0-3.8.13-5.76,1.13-6.37v-.61l.57.43c1.06-.14,2.75.54,5.52,1.82,5.19,2.4,10.56,2.4,16,2.14V222h95.49c1.45,0,2.91,0,4.37.08,2.29.14,3.68,1.26,3.75,3.6.27,10,8,16.88,19.87,16.77,20.16-.18,40.33,0,60.49,0,4.83,0,9.47-.81,13.35-3.94a16.69,16.69,0,0,0,6.14-11.6c.48-4.14,1.14-4.74,5.28-4.82,5.83-.12,11.66,0,17.49,0,27.81,0,55.63-.06,83.44.05,5.58,0,10.83-.73,15.86-3.26,3.5-1.76,4.52-1,4.79,2.88.05.73,0,1.46,0,2.19Q369.32,280.31,369.3,336.79ZM152.38,210.7c.07-4.9,2.49-7.28,7.47-7.29,10.92,0,21.83,0,32.74,0s21.59,0,32.38,0c5.41,0,7.71,2.33,7.76,7.76q.06,6.72,0,13.46c0,5.33-2.41,7.72-7.85,7.75-10.79.07-21.58,0-32.38,0-10.55,0-21.1,0-31.65,0-6.31,0-8.46-2.22-8.48-8.58C152.36,219.43,152.32,215.07,152.38,210.7Zm216.87-15.23c-.07,10.34-7.84,17.78-18.2,17.8q-51.19.1-102.39,0c-5.3,0-5.56-.29-6.35-5.66-1.2-8.05-7.34-13.57-15.81-13.92-6.31-.26-12.63-.07-18.95-.08-15.54,0-31.09.19-46.64-.06-11.06-.18-17.88,7-18.3,15.75-.13,2.7-1.68,3.85-4.26,3.93-3.89.11-7.77,0-11.66,0H77.57v-.1H39c-1,0-2,.06-2.94.14-13.56,1.12-20.52-10-20.37-20.28.39-25.14.12-50.29.14-75.43,0-11.83,5.52-17.36,17.45-17.36q107.5,0,215,0H349.9c1.7,0,3.4-.05,5.1.08,8.6.68,14.23,6.36,14.27,15C369.4,142,369.44,168.75,369.25,195.47Z"/></svg>