<?xml version="1.0" encoding="utf-8"?>
<!-- Generator: Adobe Illustrator 24.1.1, SVG Export Plug-In . SVG Version: 6.00 Build 0)  -->
<svg version="1.1" id="Capa_1" xmlns="http://www.w3.org/2000/svg" xmlns:xlink="http://www.w3.org/1999/xlink" x="0px" y="0px"
	 viewBox="0 0 25.6 25.6" style="enable-background:new 0 0 25.6 25.6;" xml:space="preserve">
<style type="text/css">
	.st0{fill:none;}
	.st1{fill:#1F2934;}
	.st2{fill:#FFFFFF;}
</style>
<path class="st0" d="M6.8,4C6.2,4,5.6,4.2,5.1,4.6C5.6,4.2,6.2,4,6.8,4c1.1-0.1,2.1,0.7,2.1,1.8c0,0.1,0,0.1,0,0.2
	c0,0.5-0.2,0.9-0.5,1.3C8.8,6.9,8.9,6.5,8.9,6c0-1.1-0.9-2-2-2C6.9,4,6.8,4,6.8,4z"/>
<path class="st0" d="M14.4,11.2L14.4,11.2L14.4,11.2L14.4,11.2z"/>
<polygon class="st0" points="4.8,9.6 4.8,9.6 4.8,20.8 8,20.8 8,20.8 4.8,20.8 "/>
<path class="st1" d="M6.8,4C6.2,4,5.6,4.2,5.1,4.6C4.8,5,4.6,5.5,4.6,6c0,1.1,0.9,2,2,2c0,0,0.1,0,0.1,0l0,0C7.4,8,8,7.8,8.4,7.3
	C8.7,6.9,8.9,6.5,8.9,6c0-1.1-0.9-2-2-2C6.9,4,6.8,4,6.8,4z"/>
<path class="st1" d="M17.9,9.3c-1.4-0.1-2.8,0.6-3.5,1.9l0,0l0,0l0,0l0,0V9.6h-3.6c0,0.9,0,11.4,0,11.2h3.6v-6.2
	c0.1-0.3,0.3-0.6,0.3-0.9c0.3-0.9,1.1-1.4,2-1.4c1.4,0,1.9,1.1,2.5,2.6v6h3.2v-6.5C22.4,10.9,20.5,9.3,17.9,9.3z"/>
<rect x="4.8" y="9.6" class="st1" width="3.2" height="11.2"/>
<path class="st2" d="M23.7,0H1.9C0.9,0,0,0.8,0,1.8c0,0,0,0,0,0v21.9c0,1,0.8,1.8,1.9,1.8c0,0,0,0,0,0h21.8c1,0,1.9-0.8,1.9-1.8
	c0,0,0,0,0,0V1.8C25.6,0.8,24.8,0,23.7,0C23.7,0,23.7,0,23.7,0z M8,20.8H4.8V9.6H8V20.8z M6.8,8L6.8,8C5.6,8.1,4.7,7.3,4.6,6.2
	c0-0.1,0-0.1,0-0.2c0-0.5,0.2-1,0.5-1.3C5.6,4.2,6.2,4,6.8,4c1.1-0.1,2.1,0.7,2.1,1.8c0,0.1,0,0.1,0,0.2c0,0.5-0.2,0.9-0.5,1.3
	C8,7.8,7.4,8,6.8,8z M22.4,20.8h-3.2v-6c-0.5-1.6-1.1-2.6-2.5-2.6c-0.9,0-1.7,0.6-2,1.4c-0.1,0.3-0.2,0.6-0.3,0.9v6.3h-3.6
	c0,0.2,0-10.3,0-11.2h3.6v1.6c0.7-1.2,2.1-1.9,3.5-1.9c2.6,0,4.5,1.6,4.5,5V20.8z"/>
<path class="st1" d="M6.8,8L6.8,8C5.6,8.1,4.7,7.3,4.6,6.2c0-0.1,0-0.1,0-0.2c0-0.5,0.2-1,0.5-1.3C4.8,5,4.6,5.5,4.6,6
	c0,1.1,0.9,2,2,2C6.6,8,6.7,8,6.8,8L6.8,8C7.4,8,8,7.8,8.4,7.3C8,7.8,7.4,8,6.8,8z"/>
<polygon class="st1" points="4.8,9.6 8,9.6 8,20.8 8,20.8 8,9.6 4.8,9.6 "/>
<path class="st2" d="M14.4,11.2L14.4,11.2L14.4,11.2z"/>
<polygon class="st2" points="14.4,11.2 14.4,11.2 14.4,11.2 14.4,11.2 "/>
</svg>
