<?xml version="1.0" encoding="utf-8"?>
<!-- Generator: Adobe Illustrator 24.1.1, SVG Export Plug-In . SVG Version: 6.00 Build 0)  -->
<svg version="1.1" id="Capa_1" xmlns="http://www.w3.org/2000/svg" xmlns:xlink="http://www.w3.org/1999/xlink" x="0px" y="0px"
	 viewBox="0 0 25.6 25.6" style="enable-background:new 0 0 25.6 25.6;" xml:space="preserve">
<style type="text/css">
	.st0{fill:#FFFFFF;}
	.st1{fill:#1F2934;}
</style>
<path class="st0" d="M12.9,5C8.5,5,5,8.5,5,12.8c0,1.5,0.4,2.9,1.1,4.2l0.2,0.3l-0.8,2.9l3-0.8l0.3,0.2c3.7,2.3,8.6,1.1,10.9-2.6
	s1.1-8.6-2.6-10.9C15.8,5.4,14.4,5,12.9,5 M17.5,16.3c-0.4,0.6-0.9,1-1.6,1.1c-0.5,0.1-1,0.1-1.5-0.1c-0.5-0.1-0.9-0.3-1.4-0.5
	c-1.6-0.8-3-2.1-4-3.6c-0.6-0.7-0.9-1.6-1-2.5c0-0.8,0.3-1.5,0.8-2C9,8.6,9.2,8.4,9.5,8.4h0.5c0.1,0,0.3-0.1,0.5,0.4
	s0.7,1.6,0.7,1.8c0.1,0.1,0.1,0.3,0,0.4c-0.1,0.1-0.1,0.3-0.2,0.4l-0.4,0.4c-0.1,0.1-0.2,0.2-0.1,0.5c0.4,0.6,0.8,1.2,1.4,1.7
	c0.6,0.5,1.2,0.9,1.9,1.2c0.2,0.1,0.4,0.1,0.5-0.1c0.3-0.3,0.5-0.6,0.8-0.9c0.1-0.2,0.3-0.2,0.5-0.1s1.4,0.7,1.6,0.8
	s0.4,0.2,0.5,0.3C17.7,15.5,17.6,15.9,17.5,16.3"/>
<path class="st0" d="M24.3,0H1.3C0.6,0,0,0.6,0,1.3c0,0,0,0,0,0v23.1c0,0.7,0.6,1.3,1.3,1.3c0,0,0,0,0,0h23.1c0.7,0,1.3-0.6,1.3-1.3
	c0,0,0,0,0,0V1.3C25.6,0.6,25,0,24.3,0C24.3,0,24.3,0,24.3,0 M20.5,18.5c-1.8,2.4-4.6,3.8-7.6,3.7l0,0c-1.6,0-3.2-0.4-4.6-1.1
	l-5,1.3l1.3-4.9C2,12.9,3.6,7.1,8.1,4.5c1.4-0.8,3-1.3,4.7-1.3c2.5,0,5,1,6.7,2.8l0,0C22.9,9.4,23.3,14.7,20.5,18.5"/>
<path class="st1" d="M17.2,14.9c-0.2-0.1-1.4-0.7-1.6-0.8S15.2,14,15,14.2c-0.2,0.3-0.5,0.6-0.8,0.9c-0.1,0.2-0.3,0.2-0.5,0.1
	c-0.7-0.3-1.3-0.7-1.9-1.2c-0.5-0.5-1-1-1.3-1.6c-0.1-0.2,0-0.4,0.1-0.5l0.4-0.4c0.1-0.1,0.2-0.3,0.2-0.4c0.1-0.1,0.1-0.3,0-0.4
	c-0.1-0.1-0.5-1.3-0.7-1.8s-0.4-0.4-0.5-0.4H9.5C9.2,8.5,9,8.6,8.8,8.8C8.3,9.3,8,10,8,10.8c0.1,0.9,0.4,1.7,1,2.4
	c1,1.5,2.4,2.8,4,3.6c0.4,0.2,0.9,0.4,1.4,0.5c0.5,0.2,1,0.2,1.5,0.1c0.7-0.1,1.2-0.5,1.6-1.1c0.2-0.4,0.2-0.7,0.1-1.1
	C17.5,15,17.4,15,17.2,14.9"/>
<path class="st1" d="M19.6,6c-1.8-1.8-4.2-2.8-6.7-2.8c-5.3,0-9.5,4.3-9.5,9.5c0,1.7,0.4,3.3,1.3,4.7l-1.4,4.9l5-1.3
	c1.4,0.8,3,1.2,4.6,1.2l0,0c3,0,5.8-1.3,7.6-3.8C23.3,14.7,22.9,9.4,19.6,6z M20.8,12.9c0,4.4-3.6,7.9-8,7.8c-1.4,0-2.8-0.4-4-1.1
	l-0.3-0.2l-3,0.8l0.8-2.9L6.1,17C3.8,13.3,5,8.4,8.7,6.1S17.3,5,19.6,8.7C20.4,10,20.8,11.5,20.8,12.9"/>
</svg>
